<svg id="visual" viewBox="0 0 3440 1000" width="3440" height="1000" xmlns="http://www.w3.org/2000/svg" xmlns:xlink="http://www.w3.org/1999/xlink" version="1.1"><rect x="0" y="0" width="3440" height="1000" fill="#f5f5f5"></rect><path d="M1247 0L1343 0L1343 100L1173 100L1173 200L1021 200L1021 300L1298 300L1298 400L1221 400L1221 500L1158 500L1158 600L942 600L942 700L1002 700L1002 800L881 800L881 900L1174 900L1174 1000L0 1000L0 900L0 900L0 800L0 800L0 700L0 700L0 600L0 600L0 500L0 500L0 400L0 400L0 300L0 300L0 200L0 200L0 100L0 100L0 0L0 0Z" fill="#f5f5f5"></path><path d="M868 0L942 0L942 100L602 100L602 200L622 200L622 300L928 300L928 400L894 400L894 500L887 500L887 600L687 600L687 700L859 700L859 800L662 800L662 900L822 900L822 1000L0 1000L0 900L0 900L0 800L0 800L0 700L0 700L0 600L0 600L0 500L0 500L0 400L0 400L0 300L0 300L0 200L0 200L0 100L0 100L0 0L0 0Z" fill="#dc9992"></path><path d="M399 0L553 0L553 100L427 100L427 200L546 200L546 300L332 300L332 400L343 400L343 500L433 500L433 600L389 600L389 700L462 700L462 800L478 800L478 900L580 900L580 1000L0 1000L0 900L0 900L0 800L0 800L0 700L0 700L0 600L0 600L0 500L0 500L0 400L0 400L0 300L0 300L0 200L0 200L0 100L0 100L0 0L0 0Z" fill="#b23939"></path></svg>