<svg id="visual" viewBox="0 0 1000 1000" width="1000" height="1000" xmlns="http://www.w3.org/2000/svg" xmlns:xlink="http://www.w3.org/1999/xlink" version="1.1"><rect x="0" y="0" width="1000" height="1000" fill="#f5f5f5"></rect><path d="M520 0L592 0L592 100L577 100L577 200L589 200L589 300L587 300L587 400L492 400L492 500L505 500L505 600L587 600L587 700L647 700L647 800L602 800L602 900L610 900L610 1000L0 1000L0 900L0 900L0 800L0 800L0 700L0 700L0 600L0 600L0 500L0 500L0 400L0 400L0 300L0 300L0 200L0 200L0 100L0 100L0 0L0 0Z" fill="#f5f5f5"></path><path d="M392 0L453 0L453 100L371 100L371 200L465 200L465 300L375 300L375 400L475 400L475 500L507 500L507 600L386 600L386 700L496 700L496 800L396 800L396 900L416 900L416 1000L0 1000L0 900L0 900L0 800L0 800L0 700L0 700L0 600L0 600L0 500L0 500L0 400L0 400L0 300L0 300L0 200L0 200L0 100L0 100L0 0L0 0Z" fill="#fbdddd"></path><path d="M136 0L231 0L231 100L189 100L189 200L209 200L209 300L215 300L215 400L141 400L141 500L139 500L139 600L163 600L163 700L141 700L141 800L252 800L252 900L250 900L250 1000L0 1000L0 900L0 900L0 800L0 800L0 700L0 700L0 600L0 600L0 500L0 500L0 400L0 400L0 300L0 300L0 200L0 200L0 100L0 100L0 0L0 0Z" fill="#ffc5c5"></path></svg>