<svg id="visual" viewBox="0 0 1000 1000" width="1000" height="1000" xmlns="http://www.w3.org/2000/svg" xmlns:xlink="http://www.w3.org/1999/xlink" version="1.1"><rect x="0" y="0" width="1000" height="1000" fill="#f5f5f5"></rect><path d="M482 1000L410 1000L410 900L425 900L425 800L413 800L413 700L415 700L415 600L510 600L510 500L497 500L497 400L415 400L415 300L355 300L355 200L400 200L400 100L392 100L392 0L1000 0L1000 100L1000 100L1000 200L1000 200L1000 300L1000 300L1000 400L1000 400L1000 500L1000 500L1000 600L1000 600L1000 700L1000 700L1000 800L1000 800L1000 900L1000 900L1000 1000L1000 1000Z" fill="#f5f5f5"></path><path d="M610 1000L549 1000L549 900L631 900L631 800L537 800L537 700L627 700L627 600L527 600L527 500L495 500L495 400L616 400L616 300L506 300L506 200L606 200L606 100L586 100L586 0L1000 0L1000 100L1000 100L1000 200L1000 200L1000 300L1000 300L1000 400L1000 400L1000 500L1000 500L1000 600L1000 600L1000 700L1000 700L1000 800L1000 800L1000 900L1000 900L1000 1000L1000 1000Z" fill="#d2daeb"></path><path d="M866 1000L771 1000L771 900L813 900L813 800L793 800L793 700L787 700L787 600L861 600L861 500L863 500L863 400L839 400L839 300L861 300L861 200L750 200L750 100L752 100L752 0L1000 0L1000 100L1000 100L1000 200L1000 200L1000 300L1000 300L1000 400L1000 400L1000 500L1000 500L1000 600L1000 600L1000 700L1000 700L1000 800L1000 800L1000 900L1000 900L1000 1000L1000 1000Z" fill="#aebfe1"></path></svg>